<?xml version="1.0" encoding="UTF-8"?>
<svg id="Capa_2" data-name="Capa 2" xmlns="http://www.w3.org/2000/svg" viewBox="0 0 829.16 59.91">
  <defs>
    <style>
      .cls-1 {
        font-family: "Gotham";
        font-size: 20px;
        font-weight: 700;
      }

      .cls-1, .cls-2 {
        fill: #fff;
      }

      .cls-3 {
        letter-spacing: 0em;
      }

      .cls-2 {
        stroke-width: 0px;
      }
    </style>
  </defs>
  <g id="Capa_1-2" data-name="Capa 1">
    <g>
      <g id="GS">
        <path class="cls-2" d="M105.13,30.34c-.39-.66-.83-1.29-1.33-1.9-2.26-2.72-5.34-4.53-9.26-5.41-.49-.1-1.19-.26-2.1-.47-5.68-1.22-8.52-2.63-8.52-4.24,0-.86.39-1.52,1.17-2,.78-.48,1.88-.72,3.31-.72,1.87,0,3.79.38,5.78,1.15,1.98.77,3.96,1.87,5.93,3.33l6.23-14.9c-3.22-1.74-6.41-3.03-9.57-3.89-3.17-.86-6.38-1.28-9.65-1.28-7.11,0-12.85,1.92-17.24,5.76-4.38,3.84-6.58,8.82-6.58,14.94,0,3.94,1.13,7.24,3.39,9.88,2.26,2.65,5.51,4.49,9.77,5.52.73.16,1.74.38,3.03.66,4.02.83,6.03,2.04,6.03,3.62,0,.91-.4,1.63-1.21,2.16-.8.53-1.91.8-3.31.8-2,0-4.14-.47-6.44-1.42-2.3-.95-4.91-2.44-7.84-4.49l-6.54,15.95c3.73,2.13,7.47,3.72,11.21,4.79,3.74,1.06,7.47,1.6,11.21,1.6,4.05,0,7.68-.62,10.88-1.85l11.66-27.57Z"/>
        <path class="cls-2" d="M57.85,27.08c-.03-.57-.07-1.44-.12-2.61h-31.48v13.38h8.91c-.23,1.48-.97,2.63-2.2,3.46-1.23.83-2.83,1.25-4.81,1.25-3.32,0-5.89-1.11-7.7-3.33-1.82-2.22-2.72-5.34-2.72-9.36s.9-6.99,2.7-9.3c1.8-2.31,4.22-3.46,7.26-3.46,1.74,0,3.28.39,4.63,1.17,1.35.78,2.5,1.96,3.46,3.54l18.25-6.77c-2.88-4.93-6.59-8.67-11.13-11.22C38.37,1.28,33.18,0,27.34,0,24.02,0,20.87.44,17.9,1.3L0,43.65c1.39,2.8,3.23,5.33,5.52,7.59,2.85,2.8,6.13,4.92,9.82,6.36,3.7,1.44,7.7,2.16,12,2.16,5.84,0,11.05-1.29,15.64-3.87,4.59-2.58,8.34-6.31,11.24-11.19,1.19-2.07,2.1-4.46,2.72-7.16.62-2.7.93-5.68.93-8.95,0-.44-.01-.95-.04-1.52"/>
        <path class="cls-2" d="M142.62,25.39c1.66,0,2.76-1.33,2.76-2.9v-.03c0-1.56-1.13-2.93-2.79-2.93s-2.74,1.33-2.74,2.9v.03c0,1.56,1.13,2.93,2.77,2.93"/>
        <path class="cls-2" d="M221.17,19.7h-1.22v5.51h1.22c1.8,0,2.99-.99,2.99-2.74v-.03c0-1.73-1.19-2.74-2.99-2.74"/>
        <path class="cls-2" d="M183.08,20.96v-.03c0-.85-.62-1.29-1.63-1.29h-1.97v2.6h1.98c1.02,0,1.61-.5,1.61-1.29"/>
        <polygon class="cls-2" points="196.76 39.92 199.97 39.92 198.38 35.84 196.76 39.92"/>
        <polygon class="cls-2" points="144.2 39.92 147.42 39.92 145.82 35.84 144.2 39.92"/>
        <path class="cls-2" d="M156.7,24.47v-.03c0-.59-.46-.98-1.47-.98h-2.29v2h2.32c.91,0,1.44-.36,1.44-.99"/>
        <path class="cls-2" d="M205.26,25.39c1.66,0,2.76-1.33,2.76-2.9v-.03c0-1.56-1.13-2.93-2.79-2.93s-2.74,1.33-2.74,2.9v.03c0,1.56,1.13,2.93,2.77,2.93"/>
        <path class="cls-2" d="M118.55,12.25l-15.36,36.43h143.55V12.25H118.55ZM199.41,22.46c0-3.11,2.51-5.64,5.85-5.64s5.82,2.49,5.82,5.61v.03c0,3.11-2.51,5.64-5.86,5.64s-5.82-2.49-5.82-5.61v-.03ZM187.62,17.04h2.8l4.46,5.73v-5.73h2.97v10.84h-2.63l-4.63-5.95v5.95h-2.97v-10.84ZM176.48,17.04h5.13c1.66,0,2.8.43,3.53,1.18.64.62.96,1.46.96,2.52v.03c0,1.66-.88,2.76-2.23,3.33l2.59,3.78h-3.47l-2.18-3.28h-1.32v3.28h-3.01v-10.84ZM166.15,17.04h8.72v2.56h-5.75v1.64h5.2v2.37h-5.2v1.72h5.82v2.56h-8.8v-10.84ZM161.15,17.04h3.02v10.84h-3.02v-10.84ZM150.01,17.04h5.56c1.36,0,2.32.34,2.96.98.43.43.7,1.01.7,1.75v.03c0,1.26-.71,2-1.67,2.42,1.32.43,2.15,1.18,2.15,2.65v.03c0,1.86-1.52,2.99-4.1,2.99h-5.59v-10.84ZM136.76,22.46c0-3.11,2.51-5.64,5.86-5.64s5.82,2.49,5.82,5.61v.03c0,3.11-2.51,5.64-5.86,5.64s-5.82-2.49-5.82-5.61v-.03ZM124.85,22.46c0-3.16,2.48-5.64,5.84-5.64,1.91,0,3.25.59,4.4,1.58l-1.77,2.12c-.77-.65-1.55-1.02-2.62-1.02-1.56,0-2.77,1.32-2.77,2.97v.03c0,1.75,1.22,3.01,2.94,3.01.73,0,1.29-.16,1.74-.45v-1.32h-2.14v-2.2h4.99v4.88c-1.15.94-2.74,1.67-4.71,1.67-3.38,0-5.9-2.32-5.9-5.61v-.03ZM137.36,41.15c0,2.93-2.31,4.67-5.79,4.67-2.54,0-4.96-.8-6.72-2.37l2.21-2.64c1.41,1.13,2.99,1.72,4.65,1.72,1.06,0,1.64-.37,1.64-.98v-.04c0-.59-.47-.92-2.42-1.37-3.05-.7-5.41-1.56-5.41-4.5v-.04c0-2.66,2.11-4.59,5.55-4.59,2.44,0,4.34.66,5.9,1.9l-1.99,2.81c-1.31-.92-2.74-1.41-4.01-1.41-.96,0-1.43.41-1.43.92v.04c0,.66.49.94,2.48,1.39,3.3.72,5.34,1.78,5.34,4.46v.04ZM149.61,45.57l-1.04-2.56h-5.53l-1.02,2.56h-4.18l6.1-14.44h3.83l6.1,14.44h-4.26ZM168.79,45.57h-3.48l-6.12-7.86v7.86h-3.93v-14.33h3.71l5.9,7.58v-7.58h3.93v14.33ZM183.1,34.72h-4.3v10.85h-3.97v-10.85h-4.3v-3.48h12.57v3.48ZM188.92,45.57h-3.99v-14.33h3.99v14.33ZM202.17,45.57l-1.04-2.56h-5.53l-1.02,2.56h-4.18l6.1-14.44h3.83l6.1,14.44h-4.26ZM220.43,43.64c-1.52,1.25-3.62,2.21-6.22,2.21-4.46,0-7.8-3.07-7.8-7.41v-.04c0-4.18,3.28-7.45,7.72-7.45,2.52,0,4.3.78,5.82,2.09l-2.33,2.81c-1.02-.86-2.05-1.35-3.46-1.35-2.07,0-3.66,1.74-3.66,3.93v.04c0,2.31,1.62,3.97,3.89,3.97.96,0,1.7-.21,2.29-.59v-1.74h-2.83v-2.91h6.59v6.45ZM216.94,27.88v-10.84h4.18c3.87,0,6.12,2.23,6.12,5.36v.03c0,3.13-2.28,5.45-6.18,5.45h-4.12ZM237.59,38.4c0,4.12-3.32,7.45-7.74,7.45s-7.7-3.3-7.7-7.41v-.04c0-4.12,3.32-7.45,7.74-7.45s7.7,3.3,7.7,7.41v.04ZM237.59,27.88h-8.8v-10.84h8.72v2.56h-5.75v1.64h5.21v2.37h-5.21v1.72h5.82v2.56Z"/>
        <path class="cls-2" d="M156.25,20.41v-.03c0-.59-.46-.93-1.36-.93h-1.95v1.91h1.89c.91,0,1.43-.31,1.43-.94"/>
        <path class="cls-2" d="M229.85,34.53c-2.17,0-3.62,1.76-3.62,3.83v.04c0,2.07,1.49,3.87,3.67,3.87s3.64-1.76,3.64-3.83v-.04c0-2.07-1.49-3.87-3.69-3.87"/>
      </g>
      <path class="cls-2" d="M408.19,45.93h-8.54V15.73h8.54v30.21ZM341.36,34.26l10.71-.04v-7.33l-10.69.04c-7.14-.03-11.55.38-19.3,8.95h0c-.98,1.18-2.06,2.07-3.23,2.67-1.18.6-2.47.91-3.88.91-1.24,0-2.37-.2-3.41-.6s-1.92-.99-2.65-1.75c-.73-.76-1.31-1.68-1.73-2.74-.42-1.06-.63-2.24-.63-3.54s.21-2.47.63-3.54c.42-1.06.99-1.98,1.73-2.74.73-.76,1.62-1.34,2.65-1.75,1.04-.4,2.17-.6,3.41-.6,1.41,0,2.7.3,3.88.91,1.18.6,2.26,1.48,3.24,2.63l5.44-4.92c-1.47-1.87-3.3-3.29-5.5-4.25-2.2-.96-4.7-1.45-7.49-1.45-2.39,0-4.59.38-6.6,1.14-2.01.76-3.77,1.84-5.26,3.24-1.5,1.4-2.66,3.06-3.5,4.98-.83,1.93-1.25,4.04-1.25,6.34s.42,4.42,1.25,6.34c.83,1.93,2,3.59,3.5,4.98,1.5,1.4,3.25,2.47,5.26,3.24,2.01.76,4.21,1.14,6.6,1.14,2.79,0,5.29-.49,7.49-1.47,2.2-.98,4.03-2.4,5.5-4.27h0c5.93-6.56,8.08-6.57,13.84-6.54ZM345.59,22.45h11.75v-6.73h-23.17v6.73h11.41ZM334.18,45.93h24.6v-6.73h-24.6v6.73ZM446.07,39.33v6.6h-1.2c-7.85,0-11.32-3.13-13.85-5.42-1.86-1.68-2.89-2.61-5.39-2.61v8.03h-8.54V15.73h13.77c2.76,0,5.15.45,7.16,1.34,2.01.89,3.56,2.18,4.64,3.86,1.08,1.68,1.62,3.66,1.62,5.93s-.54,4.32-1.62,5.95c-1.02,1.54-2.45,2.75-4.3,3.62h0c1.54,2.02,2.24,2.9,6.52,2.9h1.2ZM435.67,26.86c0-1.35-.45-2.42-1.34-3.21-.89-.79-2.23-1.19-4.01-1.19h-4.7v8.85h4.7c1.78,0,3.12-.39,4.01-1.17.89-.78,1.34-1.87,1.34-3.28ZM373.02,24.55c.75-.76,1.65-1.34,2.72-1.75,1.06-.4,2.24-.6,3.54-.6,1.47,0,2.8.27,3.99.82,1.19.55,2.31,1.4,3.34,2.55l5.44-4.92c-1.47-1.78-3.32-3.15-5.57-4.1-2.24-.95-4.78-1.42-7.59-1.42-2.47,0-4.73.38-6.78,1.14-2.04.76-3.82,1.84-5.33,3.24-1.51,1.4-2.68,3.06-3.52,4.98-.83,1.93-1.25,4.04-1.25,6.34s.42,4.42,1.25,6.34c.83,1.93,2,3.59,3.5,4.98,1.5,1.4,3.25,2.47,5.26,3.24,2.01.76,4.23,1.14,6.65,1.14,2.19,0,4.41-.33,6.67-.99,2.26-.66,4.26-1.61,6.02-2.85v-12.51h-7.59v8.3c-.29.13-.58.25-.86.35-1.21.42-2.45.63-3.71.63s-2.42-.21-3.47-.63c-1.05-.42-1.95-1.01-2.7-1.77-.75-.76-1.33-1.68-1.75-2.74-.42-1.06-.63-2.23-.63-3.5s.21-2.47.63-3.54c.42-1.06,1-1.98,1.75-2.74Z"/>
      <rect class="cls-2" x="463.27" y="2.26" width="2.18" height="57.65"/>
      <text class="cls-1" transform="translate(480.34 26.85)"><tspan x="0" y="0">Analítica de </tspan><tspan x="0" y="20">Medios y </tspan><tspan class="cls-3" x="96.48" y="20">R</tspan><tspan x="110.74" y="20">edes</tspan></text>
    </g>
  </g>
</svg>